<svg id="Capa_1" enable-background="new 0 0 512 512" height="512" viewBox="0 0 512 512" width="512" xmlns="http://www.w3.org/2000/svg"><g><path d="m91 497v15h165l-14-67.498-64.866-50.801c-48.925 8.913-86.134 51.841-86.134 103.299z" fill="#fff5f5"/><path d="m334.866 393.701-59.196 39.381-19.67 78.918h165v-15c0-51.458-37.209-94.386-86.134-103.299z" fill="#efe2dd"/><path d="m334.87 393.7-78.87 118.3-78.87-118.3c6.13-1.11 12.43-1.7 18.87-1.7h15v-23.54h90v23.54h15c6.44 0 12.74.59 18.87 1.7z" fill="#ffbfab"/><path d="m334.87 393.7-78.87 118.3v-143.54h45v23.54h15c6.44 0 12.74.59 18.87 1.7z" fill="#f89580"/><path d="m413.51 99.91-23.12 71.36h-268.78l-23.12-71.36c-6.21-18.73.59-39.61 16.56-50.8 26.17-18.34 79.3-49.11 140.95-49.11s114.78 30.77 140.95 49.11c15.97 11.19 22.77 32.07 16.56 50.8z" fill="#fff5f5"/><path d="m413.51 99.91-23.12 71.36h-134.39v-171.27c61.65 0 114.78 30.77 140.95 49.11 15.97 11.19 22.77 32.07 16.56 50.8z" fill="#efe2dd"/><path d="m421 242c0 52.85-36.82 93.43-101.03 111.34h-127.94c-64.21-17.91-101.03-58.49-101.03-111.34 0-83.09 90.26-150 165-150s165 66.91 165 150z" fill="#766e6e"/><path d="m421 242c0 52.85-36.82 93.43-101.03 111.34h-63.97v-261.34c74.74 0 165 66.91 165 150z" fill="#5b5555"/><path d="m331 227c-41.42 0-75-33.58-75-75 0 41.42-33.58 75-75 75h-30c0 42.75 10.12 83.15 28.5 113.78 19.81 33.03 46.98 51.22 76.5 51.22s56.69-18.19 76.5-51.22c18.38-30.63 28.5-71.03 28.5-113.78z" fill="#ffe1ba"/><path d="m361 227c0 42.75-10.12 83.15-28.5 113.78-19.81 33.03-46.98 51.22-76.5 51.22v-240c0 41.42 33.58 75 75 75z" fill="#ffbfab"/></g></svg>